Simulation
nRows=49
nColumns=15
endheader
time  TH_x TH_y TH_z SC_y  SC_z  SC_x  AC_y  AC_z  AC_x  GH_y  GH_z  GH_yy  EL_x  PS_y
1.55  0.000000  0.000000  0.000000  -32.42007487922062  7.271980771349892  27.34868229768378  51.27910422034192  5.110194190454995  -7.958202694094247  23.456609440221822  55.66950085823599  -19.40172452556713  17.917592681186473  0.000000
1.581  0.000000  0.000000  0.000000  -32.77026617940323  7.562940143138049  27.848528473603455  51.27489048400899  5.232568647064845  -7.635991162933701  23.244520917564156  56.24066344729964  -19.406381971854024  17.890560034669978  0.000000
1.612  0.000000  0.000000  0.000000  -33.089526350528644  7.812283777598264  28.217568997837635  51.29427521651774  5.356096720559285  -7.298861575727976  23.017115296820624  56.768964719709246  -19.368239199133917  17.87589653274299  0.000000
1.643  0.000000  0.000000  0.000000  -33.37202689504553  8.007978204914977  28.47267926612978  51.335549800427465  5.485434740089874  -6.972264510080702  22.78597239987068  57.23530787376433  -19.311176845793597  17.878955538338886  0.000000
1.674  0.000000  0.000000  0.000000  -33.62077188843235  8.151609803838946  28.640082074777386  51.38928692432135  5.618300696863545  -6.676599942012125  22.580007850898564  57.61069480985585  -19.259273164382243  17.89853007201684  0.000000
1.705  0.000000  0.000000  0.000000  -33.845427690809665  8.254224875996035  28.748951594905925  51.44479879066172  5.745837268148964  -6.424361842109372  22.431358834011423  57.8652709927647  -19.223638714034543  17.92839784595382  0.000000
1.736  0.000000  0.000000  0.000000  -34.04769950638774  8.325296613225973  28.817951890899526  51.49272144045517  5.856584164772809  -6.226269280597417  22.362793980551796  57.979743470628286  -19.206363449408098  17.96183167660363  0.000000
1.767  0.000000  0.000000  0.000000  -34.21916634166363  8.368625843936865  28.854216599417036  51.5264709945738  5.938936142007711  -6.0943117023520745  22.381855818797188  57.94970730166053  -19.204891086010402  17.994050389321224  0.000000
1.798  0.000000  0.000000  0.000000  -34.339562932315246  8.383145793930659  28.85166990243968  51.53993612397955  5.982889910325124  -6.041343101652753  22.483770771647595  57.782624699731706  -19.21845889310869  18.021916865346256  0.000000
1.829  0.000000  0.000000  0.000000  -34.38940885049236  8.365574684952099  28.80156691309954  51.53020986974531  5.981687219197494  -6.076801538359662  22.657811559199626  57.4890574736152  -19.252636549571168  18.043303702366607  0.000000
1.8599999999999999  0.000000  0.000000  0.000000  -34.3559994813984  8.309271286073615  28.69804759835877  51.500830759370245  5.932948443233792  -6.204140116593543  22.893286827281273  57.07447153634451  -19.32687917861618  18.05714851879218  0.000000
1.891  0.000000  0.000000  0.000000  -34.23966205343424  8.205834061973952  28.543425897126532  51.46359749205761  5.839143794698601  -6.418843519321017  23.179894162486367  56.53735955243907  -19.469995922422342  18.062959827146436  0.000000
1.922  0.000000  0.000000  0.000000  -34.04868041614587  8.047321389087289  28.33961406550568  51.43437334256981  5.703689098188446  -6.709770032726178  23.507061194245995  55.87693892877271  -19.70841871091987  18.06147667954936  0.000000
1.953  0.000000  0.000000  0.000000  -33.80037143530194  7.83199166411629  28.08268645129263  51.42824714370578  5.526739166173468  -7.05881153500527  23.862514730214915  55.10188361486133  -20.045865789806975  18.05667033708857  0.000000
1.984  0.000000  0.000000  0.000000  -33.51279892932641  7.566924421012559  27.757282366259325  51.45230151013573  5.303779997725109  -7.44298700877289  24.232464510369034  54.23207068632432  -20.45456842198993  18.057919958513335  0.000000
2.015  0.000000  0.000000  0.000000  -33.20346801030029  7.264450258315234  27.34213348052022  51.50465768442464  5.032853541658804  -7.835494065258826  24.60391369731927  53.2921268149783  -20.883275251099825  18.07741097043014  0.000000
2.046  0.000000  0.000000  0.000000  -32.88125946492842  6.933741319004449  26.814872624221998  51.57554210591972  4.724001374698243  -8.211132736698449  24.967389644704  52.301833442492544  -21.280861335857214  18.12540176862522  0.000000
2.077  0.000000  0.000000  0.000000  -32.55407202489858  6.5791429649682325  26.16669874554795  51.654898102485035  4.3960011681083575  -8.548202108082782  25.316152794928165  51.270684037920454  -21.613856541153286  18.204350240765216  0.000000
2.108  0.000000  0.000000  0.000000  -32.23086909773304  6.199817337187576  25.403443559307348  51.737145473688145  4.068703462894604  -8.833799878320256  25.646862655313914  50.20225803589274  -21.87411484079459  18.308504941591867  0.000000
2.139  0.000000  0.000000  0.000000  -31.92358078336758  5.793257729014791  24.547238236712268  51.82081011379311  3.7556047071230836  -9.065351046510907  25.955166326859377  49.09766704150407  -22.064886236506684  18.42916277458339  0.000000
2.17  0.000000  0.000000  0.000000  -31.63860334451666  5.360527372572083  23.622364528641132  51.90221186195038  3.460619348900341  -9.248424435497633  26.238070176856677  47.960094195391406  -22.196421733527263  18.557474822543043  0.000000
2.201  0.000000  0.000000  0.000000  -31.378085373515407  4.903714701791791  22.648325656365266  51.97556122137659  3.183306521071522  -9.391096019617102  26.492889939056486  46.795255822181176  -22.275655665682237  18.68632869565922  0.000000
2.232  0.000000  0.000000  0.000000  -31.136936930717308  4.425556272755142  21.634884512267032  52.03298350761547  2.9226357368359555  -9.500949455053291  26.71861295795418  45.61019565563944  -22.307972281772997  18.809968911895606  0.000000
2.263  0.000000  0.000000  0.000000  -30.91268158767525  3.933206320010475  20.590097044953566  52.06762726625638  2.6775439638461562  -9.579694299259257  26.91662688170972  44.40793310148376  -22.29504186938808  18.92455752358435  0.000000
2.294  0.000000  0.000000  0.000000  -30.701081678281565  3.4322701831964535  19.520891701977412  52.07535451980701  2.45104917327691  -9.629100866158513  27.090965149857645  43.18855416684807  -22.237364837067194  19.027188132238287  0.000000
2.325  0.000000  0.000000  0.000000  -30.50044396067101  2.9271229311984386  18.43794553365409  52.055156021032  2.2484622252923114  -9.650393341310679  27.243787799827782  41.948614457689615  -22.130205721319616  19.116536662793592  0.000000
2.356  0.000000  0.000000  0.000000  -30.312688128672384  2.425318103745464  17.353078226102447  52.009108846423146  2.0736566113809376  -9.644715897827451  27.38065753605474  40.68247331706521  -21.972504689657736  19.192565577524736  0.000000
2.387  0.000000  0.000000  0.000000  -30.140723072894687  1.9334955618464886  16.278239331822252  51.94031424140235  1.9288005202256042  -9.613018630602495  27.502377214935766  39.383820635155544  -21.760578085139173  19.257016242567833  0.000000
2.418  0.000000  0.000000  0.000000  -29.981579828894755  1.458082431245928  15.220386239542432  51.8498244588461  1.8146705272407093  -9.557372754667862  27.610768893882558  38.046086369307226  -21.497265088086912  19.312142460289675  0.000000
2.449  0.000000  0.000000  0.000000  -29.832599025198906  1.0063836695358814  14.183925728582818  51.737735864820195  1.7284878978640668  -9.47789180760936  27.706226748126284  36.66328040206619  -21.188721450967588  19.361611284265944  0.000000
2.48  0.000000  0.000000  0.000000  -29.690541677876485  0.5832304344480642  13.171969146300333  51.60517909963064  1.6691074480150747  -9.375983071650472  27.793516300278295  35.22915427768203  -20.84811025841092  19.40826534950753  0.000000
2.511  0.000000  0.000000  0.000000  -29.555239543546442  0.1902868924663987  12.189413658033533  51.45638620248873  1.6355350898423706  -9.253814987361784  27.877097059377494  33.739929588718994  -20.49220261683028  19.45323039799255  0.000000
2.542  0.000000  0.000000  0.000000  -29.42796674346923  -0.1734648381573889  11.243919574799733  51.29816042696758  1.6287939004614806  -9.115934826831495  27.967064922005175  32.19233338622949  -20.143037123145767  19.497207561425256  0.000000
2.573  0.000000  0.000000  0.000000  -29.311419066656967  -0.5087068165073252  10.344157431850942  51.13806756821425  1.647092152150935  -8.966732037766937  28.07225861868567  30.587164768906643  -19.820730787980263  19.53889011647372  0.000000
2.604  0.000000  0.000000  0.000000  -29.205232182868336  -0.8136785769718294  9.498772651723607  50.979612649570235  1.688022854734119  -8.810572611517145  28.202629153967305  28.92478840043359  -19.535793671622876  19.579392621285187  0.000000
2.635  0.000000  0.000000  0.000000  -29.10590291304075  -1.0824934559176174  8.709486875754616  50.82372486947315  1.7472092294534876  -8.64769792100981  28.363240963375414  27.209779679430564  -19.286672724059404  19.6176605751278  0.000000
2.666  0.000000  0.000000  0.000000  -29.00713191260939  -1.3099272259154524  7.974178304067341  50.66722927296174  1.82117988044026  -8.475991637499078  28.556414379146698  25.447384766023287  -19.060589595879797  19.656355654283182  0.000000
2.697  0.000000  0.000000  0.000000  -28.904427351456732  -1.4934249073568866  7.288361889211425  50.51043398614468  1.9040202761955767  -8.295101754781049  28.781727655448847  23.650537340983494  -18.84468030836882  19.69434178040725  0.000000
2.7279999999999998  0.000000  0.000000  0.000000  -28.798791121213394  -1.637268781270575  6.6508570802096525  50.350785122623456  1.9912355315771513  -8.108449508553543  29.0369270686474  21.835052392921256  -18.627028440882146  19.737230101914466  0.000000
2.759  0.000000  0.000000  0.000000  -28.696897110656455  -1.7490081880548556  6.057839236487344  50.1938659034477  2.080732470823983  -7.921905745336526  29.318945391482092  20.023521907192197  -18.399821176213532  19.78463336727317  0.000000
2.79  0.000000  0.000000  0.000000  -28.603926783626118  -1.8368274678288792  5.5109206665191275  50.03655738579872  2.170704499337188  -7.741585885557478  29.61586156563106  18.23311473713276  -18.149345337700307  19.845516733561155  0.000000
2.821  0.000000  0.000000  0.000000  -28.52185416675958  -1.9033881443445866  5.010160411105225  49.885802908718524  2.2605909825675288  -7.5720526317793855  29.908229834761087  16.47789643813088  -17.850126711781616  19.924471314068928  0.000000
2.852  0.000000  0.000000  0.000000  -28.44204025257375  -1.9467763965467495  4.564177113338195  49.73377716560976  2.3476791951381544  -7.417549185928021  30.161162178197365  14.75861380948551  -17.466145041375203  20.03996551306055  0.000000
2.883  0.000000  0.000000  0.000000  -28.358081254728035  -1.965268540343814  4.178048497509424  49.5893218107004  2.4341014434446513  -7.281428350781685  30.325325011174197  13.075909712036609  -16.936383833455498  20.202048689570574  0.000000
2.914  0.000000  0.000000  0.000000  -28.256929075582676  -1.958329079032278  3.8635549672694207  49.443246416117034  2.5197785989574553  -7.173136546222247  30.363563900961843  11.424304277148845  -16.22808054220986  20.42425256651638  0.000000
2.945  0.000000  0.000000  0.000000  -28.14829458544389  -1.9350113835221585  3.619678856480144  49.30895354951177  2.614964085789909  -7.096115266841915  30.237445987041127  9.805120464778138  -15.288058805966372  20.705583602701523  0.000000
2.976  0.000000  0.000000  0.000000  -28.015779234788834  -1.908394711170414  3.4369382131603143  49.18002866202864  2.727980495068085  -7.060559179909535  29.981493579913945  8.212543956151123  -14.167164057782324  21.0408553299812  0.000000
3.007  0.000000  0.000000  0.000000  -27.896762348639285  -1.9075850978963733  3.2899109180861332  49.067056791640674  2.862363760423786  -7.054629889142461  29.568744424802553  6.651469787183457  -12.82907774482394  21.42499021203605  0.000000
3.038  0.000000  0.000000  0.000000  -27.730083060064985  -1.9466295291476878  3.133622919309957  48.96931189073256  2.9932913147861147  -7.084387580893711  29.10878561210671  5.114758251051813  -11.428409003824969  21.846812800744537  0.000000
